<mxfile host="65bd71144e">
    <diagram id="AQJQwIHJDDzufebKtQN-" name="Page-1">
        <mxGraphModel dx="1049" dy="614" grid="1" gridSize="10" guides="1" tooltips="1" connect="1" arrows="1" fold="1" page="1" pageScale="1" pageWidth="827" pageHeight="1169" math="0" shadow="0">
            <root>
                <mxCell id="0"/>
                <mxCell id="1" parent="0"/>
                <mxCell id="2" value="&lt;font&gt;&lt;span class=&quot;char&quot;&gt;&lt;span class=&quot;vchar&quot; id=&quot;char-node&quot;&gt;«Computing Node&lt;/span&gt;&lt;/span&gt;&lt;span class=&quot;char&quot;&gt;&lt;span class=&quot;vchar&quot; id=&quot;char-node&quot;&gt;»&lt;br&gt;&lt;div&gt;&lt;b&gt;Windows-PC&lt;/b&gt;&lt;/div&gt;&lt;/span&gt;&lt;/span&gt;&lt;/font&gt;" style="shape=cube;whiteSpace=wrap;html=1;boundedLbl=1;backgroundOutline=1;darkOpacity=0.05;darkOpacity2=0.1;size=10;align=center;verticalAlign=top;fillColor=#E0CBB4;fontFamily=Verdana;" parent="1" vertex="1">
                    <mxGeometry x="250" y="50" width="470" height="350" as="geometry"/>
                </mxCell>
                <mxCell id="3" value="&lt;font&gt;&lt;span class=&quot;char&quot;&gt;&lt;span class=&quot;vchar&quot; id=&quot;char-node&quot;&gt;«Execution Environment&lt;/span&gt;&lt;/span&gt;&lt;span class=&quot;char&quot;&gt;&lt;span class=&quot;vchar&quot; id=&quot;char-node&quot;&gt;»&lt;br&gt;&lt;div&gt;&lt;b&gt;Java Runtime Enironment&lt;/b&gt;&lt;/div&gt;&lt;/span&gt;&lt;/span&gt;&lt;/font&gt;" style="shape=cube;whiteSpace=wrap;html=1;boundedLbl=1;backgroundOutline=1;darkOpacity=0.05;darkOpacity2=0.1;size=10;align=center;verticalAlign=top;fillColor=#ffe6cc;fontFamily=Verdana;" parent="1" vertex="1">
                    <mxGeometry x="270" y="260" width="187.5" height="120" as="geometry"/>
                </mxCell>
                <mxCell id="4" value="&lt;p style=&quot;margin: 4px 0px 0px;&quot;&gt;&lt;font&gt;&lt;span class=&quot;char&quot;&gt;&lt;span class=&quot;vchar&quot; id=&quot;char-node&quot;&gt;«Deployment Artifact&lt;/span&gt;&lt;/span&gt;&lt;span class=&quot;char&quot;&gt;&lt;span class=&quot;vchar&quot; id=&quot;char-node&quot;&gt;»&lt;br&gt;&lt;/span&gt;&lt;/span&gt;&lt;/font&gt;&lt;/p&gt;&lt;p style=&quot;margin: 0px 0px 0px 4px&quot;&gt;&lt;b&gt;DokChess.jar&lt;/b&gt;&lt;/p&gt;" style="html=1;outlineConnect=0;whiteSpace=wrap;shape=mxgraph.archimate.application;appType=artifact;fontFamily=Verdana;fontSize=12;align=center;verticalAlign=top;spacingRight=10;fillColor=#B9E0A5;" parent="1" vertex="1">
                    <mxGeometry x="285.75" y="310" width="156" height="60" as="geometry"/>
                </mxCell>
                <mxCell id="5" value="&lt;p style=&quot;margin: 4px 0px 0px;&quot;&gt;&lt;font&gt;&lt;span class=&quot;char&quot;&gt;&lt;span class=&quot;vchar&quot; id=&quot;char-node&quot;&gt;«Deployment Artifact&lt;/span&gt;&lt;/span&gt;&lt;span class=&quot;char&quot;&gt;&lt;span class=&quot;vchar&quot; id=&quot;char-node&quot;&gt;»&lt;br&gt;&lt;/span&gt;&lt;/span&gt;&lt;/font&gt;&lt;/p&gt;&lt;p style=&quot;margin: 0px 0px 0px 4px&quot;&gt;&lt;b&gt;dokchess.bat&lt;/b&gt;&lt;/p&gt;" style="html=1;outlineConnect=0;whiteSpace=wrap;shape=mxgraph.archimate.application;appType=artifact;fontFamily=Verdana;fontSize=12;align=center;verticalAlign=top;spacingRight=10;fillColor=#B9E0A5;" parent="1" vertex="1">
                    <mxGeometry x="550" y="210" width="140" height="70" as="geometry"/>
                </mxCell>
                <mxCell id="17" value="" style="edgeStyle=none;html=1;" parent="1" source="8" target="6" edge="1">
                    <mxGeometry relative="1" as="geometry"/>
                </mxCell>
                <mxCell id="8" value="stdIn/stdOut" style="text;html=1;align=center;verticalAlign=middle;resizable=0;points=[];autosize=1;strokeColor=none;fillColor=none;" parent="1" vertex="1">
                    <mxGeometry x="370" y="230" width="90" height="30" as="geometry"/>
                </mxCell>
                <mxCell id="11" value="" style="endArrow=open;html=1;fillColor=#000000;fontFamily=Verdana;fontSize=12;endFill=0;dashed=1;exitX=0.5;exitY=0;exitDx=0;exitDy=0;exitPerimeter=0;entryX=0;entryY=0;entryDx=205;entryDy=70;entryPerimeter=0;" parent="1" source="5" target="16" edge="1">
                    <mxGeometry relative="1" as="geometry">
                        <mxPoint x="510" y="170" as="sourcePoint"/>
                        <mxPoint x="480" y="170" as="targetPoint"/>
                    </mxGeometry>
                </mxCell>
                <mxCell id="12" value="&lt;span style=&quot;font-size: 12px; background-color: rgb(248, 249, 250);&quot;&gt;«deploy»&lt;/span&gt;" style="edgeLabel;resizable=0;html=1;align=center;verticalAlign=middle;fontFamily=Verdana;" parent="11" connectable="0" vertex="1">
                    <mxGeometry relative="1" as="geometry"/>
                </mxCell>
                <mxCell id="13" value="" style="endArrow=open;html=1;fillColor=#000000;fontFamily=Verdana;fontSize=12;endFill=0;dashed=1;entryX=0;entryY=0;entryDx=187.5;entryDy=65;entryPerimeter=0;exitX=0.5;exitY=1;exitDx=0;exitDy=0;exitPerimeter=0;" parent="1" source="5" target="3" edge="1">
                    <mxGeometry relative="1" as="geometry">
                        <mxPoint x="560" y="210" as="sourcePoint"/>
                        <mxPoint x="495" y="185" as="targetPoint"/>
                    </mxGeometry>
                </mxCell>
                <mxCell id="14" value="&lt;span style=&quot;font-size: 12px; background-color: rgb(248, 249, 250);&quot;&gt;«deploy»&lt;/span&gt;" style="edgeLabel;resizable=0;html=1;align=center;verticalAlign=middle;fontFamily=Verdana;" parent="13" connectable="0" vertex="1">
                    <mxGeometry relative="1" as="geometry"/>
                </mxCell>
                <mxCell id="15" value="Deployment@Runtime" style="rounded=0;whiteSpace=wrap;html=1;" parent="1" vertex="1">
                    <mxGeometry x="730" y="340" width="130" height="60" as="geometry"/>
                </mxCell>
                <mxCell id="16" value="&lt;font&gt;&lt;span class=&quot;char&quot;&gt;&lt;span class=&quot;vchar&quot; id=&quot;char-node&quot;&gt;«Execution Environment&lt;/span&gt;&lt;/span&gt;&lt;span class=&quot;char&quot;&gt;&lt;span class=&quot;vchar&quot; id=&quot;char-node&quot;&gt;»&lt;br&gt;&lt;div&gt;&lt;b&gt;Windows Process&lt;/b&gt;&lt;/div&gt;&lt;/span&gt;&lt;/span&gt;&lt;/font&gt;" style="shape=cube;whiteSpace=wrap;html=1;boundedLbl=1;backgroundOutline=1;darkOpacity=0.05;darkOpacity2=0.1;size=10;align=center;verticalAlign=top;fillColor=#ffe6cc;fontFamily=Verdana;" parent="1" vertex="1">
                    <mxGeometry x="270" y="100" width="205" height="130" as="geometry"/>
                </mxCell>
                <mxCell id="6" value="&lt;p style=&quot;margin: 4px 0px 0px;&quot;&gt;&lt;font&gt;&lt;span class=&quot;char&quot;&gt;&lt;span class=&quot;vchar&quot; id=&quot;char-node&quot;&gt;«Deployment Artifact&lt;/span&gt;&lt;/span&gt;&lt;span class=&quot;char&quot;&gt;&lt;span class=&quot;vchar&quot; id=&quot;char-node&quot;&gt;»&lt;br&gt;&lt;/span&gt;&lt;/span&gt;&lt;/font&gt;&lt;/p&gt;&lt;p style=&quot;margin: 0px 0px 0px 4px&quot;&gt;&lt;b&gt;Arena Chess Gui.exe&lt;/b&gt;&lt;/p&gt;" style="html=1;outlineConnect=0;whiteSpace=wrap;shape=mxgraph.archimate.application;appType=artifact;fontFamily=Verdana;fontSize=12;align=center;verticalAlign=top;spacingRight=10;fillColor=#B9E0A5;" parent="1" vertex="1">
                    <mxGeometry x="285.75" y="150" width="175" height="70" as="geometry"/>
                </mxCell>
                <mxCell id="18" value="" style="endArrow=none;html=1;fillColor=#000000;fontFamily=Verdana;fontSize=12;endFill=0;dashed=1;dashPattern=1 1;entryX=0.491;entryY=1;entryDx=0;entryDy=0;entryPerimeter=0;exitX=0.537;exitY=0.007;exitDx=0;exitDy=0;exitPerimeter=0;" parent="1" source="3" target="16" edge="1">
                    <mxGeometry relative="1" as="geometry">
                        <mxPoint x="480" y="320" as="sourcePoint"/>
                        <mxPoint x="580" y="320" as="targetPoint"/>
                    </mxGeometry>
                </mxCell>
            </root>
        </mxGraphModel>
    </diagram>
</mxfile>